<svg width="40" height="40" viewBox="0 0 40 40" fill="none" xmlns="http://www.w3.org/2000/svg">
<path d="M4.74736 29.2528C4.77762 28.799 4.9356 28.401 5.11066 27.9813C5.69745 26.5743 6.36686 25.1909 7.06035 23.8337C8.39331 21.2249 9.75826 18.5879 11.2806 16.0833C12.3313 14.3548 13.1354 11.5636 15.1861 10.7247C15.3865 10.6427 15.7747 10.5149 15.9793 10.6581C16.4249 10.9701 16.4686 11.8793 16.5908 12.3474C16.8395 13.2999 17.2486 14.2352 17.3658 15.2175C17.4953 16.3013 17.3901 17.4572 17.3901 18.5477C17.3901 20.0788 17.36 21.5789 17.1721 23.101C17.0917 23.752 16.9992 25.3131 16.3365 25.7107C15.6184 26.1415 14.3832 26.1212 13.5755 26.0861C11.6575 26.0027 11.0687 23.8125 11.0687 22.1928C11.0687 21.6366 10.924 20.8558 11.1293 20.3279C11.3072 19.8704 12.1128 19.9877 12.4977 19.9343C13.3632 19.8141 14.6513 19.8323 15.4283 19.4438" stroke="#DA3F3F" stroke-width="2" stroke-linecap="round"/>
<path d="M21.3137 21.4056C21.004 21.4056 21.8229 21.2573 21.9918 21.1634C22.5006 20.8808 23.0297 20.601 23.5419 20.3279C23.8599 20.1582 24.0458 19.9033 24.3411 19.7102C24.7038 19.4731 24.5833 20.2004 24.5833 20.3763C24.5833 21.1765 24.4109 21.5718 24.0384 22.2775C23.6786 22.9593 23.4408 23.6439 23.3844 24.4331C23.307 25.5178 23.1114 26.628 23.4934 27.6785C23.7751 28.4531 24.986 27.6725 25.3462 27.291C25.5897 27.0333 25.9632 26.3286 26.2182 26.2011" stroke="#DA3F3F" stroke-width="2" stroke-linecap="round"/>
<path d="M25.0193 14.4303C25.0679 14.6493 25.3473 14.9773 25.4552 15.1933" stroke="#DA3F3F" stroke-width="2" stroke-linecap="round"/>
<path d="M29.1609 27.509C29.2511 27.6795 29.3523 27.8094 29.4878 27.945" stroke="#DA3F3F" stroke-width="2" stroke-linecap="round"/>
<path d="M32.6485 26.9641C32.9777 27.2933 33.0989 27.6468 33.3024 28.054" stroke="#DA3F3F" stroke-width="2" stroke-linecap="round"/>
<path d="M29.1609 27.509C29.1609 27.8766 29.2872 28.516 29.4878 28.8169" stroke="#DA3F3F" stroke-width="2" stroke-linecap="round"/>
</svg>
