<svg width="16" height="16" viewBox="0 0 16 16" fill="none" xmlns="http://www.w3.org/2000/svg">
<path fill-rule="evenodd" clip-rule="evenodd" d="M0.5 1.5C0.5 1.22386 0.723858 1 1 1H10C10.2761 1 10.5 1.22386 10.5 1.5V8.5C10.5 8.77614 10.2761 9 10 9H6.20711L3.35355 11.8536C3.21055 11.9966 2.9955 12.0393 2.80866 11.9619C2.62182 11.8845 2.5 11.7022 2.5 11.5V9H1C0.723858 9 0.5 8.77614 0.5 8.5V1.5ZM1.5 2V8H3C3.27614 8 3.5 8.22386 3.5 8.5V10.2929L5.64645 8.14645C5.74021 8.05268 5.86739 8 6 8H9.5V2H1.5ZM14 4H12V3H14.5C14.7761 3 15 3.22386 15 3.5V10.5C15 10.7761 14.7761 11 14.5 11H12V13.5C12 13.7022 11.8782 13.8845 11.6913 13.9619C11.5045 14.0393 11.2894 13.9966 11.1464 13.8536L8.14645 10.8536C7.95118 10.6583 7.95118 10.3417 8.14645 10.1464C8.34171 9.95118 8.65829 9.95118 8.85355 10.1464L11 12.2929V10.5C11 10.2239 11.2239 10 11.5 10H14V4Z" fill="#6C707E"/>
</svg>
