<svg width="16" height="16" viewBox="0 0 16 16" fill="none" xmlns="http://www.w3.org/2000/svg">
<path fill-rule="evenodd" clip-rule="evenodd" d="M1.5 2C1.5 1.72386 1.72386 1.5 2 1.5H14C14.2761 1.5 14.5 1.72386 14.5 2V11C14.5 11.2761 14.2761 11.5 14 11.5H9.20711L5.69497 15.0121C5.254 15.4531 4.5 15.1408 4.5 14.5172V11.5H2C1.72386 11.5 1.5 11.2761 1.5 11V2ZM2.5 2.5V10.5H5C5.27614 10.5 5.5 10.7239 5.5 11V13.7929L8.64645 10.6464C8.74021 10.5527 8.86739 10.5 9 10.5H13.5V2.5H2.5Z" fill="#6C707E"/>
</svg>